<svg xmlns="http://www.w3.org/2000/svg" width="25" height="25" viewBox="0 0 25 25"><defs><style>.a{fill:#fff;}</style></defs><g transform="translate(-2 -2)"><path class="a" d="M23.667,5.75A1.667,1.667,0,0,0,22,4.083h-.417v1.25a.833.833,0,0,1-.833.833h-.833a.833.833,0,0,0,.833-.833v-2.5a.833.833,0,1,0-1.667,0v1.25H17v1.25a.833.833,0,0,1-.833.833h-.833a.833.833,0,0,0,.833-.833v-2.5a.833.833,0,1,0-1.667,0v1.25H12v1.25a.833.833,0,0,1-.833.833h-.833a.833.833,0,0,0,.833-.833v-2.5a.833.833,0,1,0-1.667,0v1.25H7.417v1.25a.833.833,0,0,1-.833.833H5.75a.833.833,0,0,0,.833-.833v-2.5a.833.833,0,1,0-1.667,0v1.25H3.667A1.667,1.667,0,0,0,2,5.75v2.5H23.667Z" transform="translate(0 0)"/><path class="a" d="M44.583,40a4.583,4.583,0,1,0,4.583,4.583A4.583,4.583,0,0,0,44.583,40Zm0,5.417a.828.828,0,0,1-.3-.058L42.76,46.576l-.521-.651,1.523-1.218a.8.8,0,0,1,.4-.841V41.25H45v2.616a.831.831,0,0,1-.417,1.551Z" transform="translate(-22.167 -22.167)"/><path class="a" d="M3.667,34.417h13.75a5.417,5.417,0,0,1,2.916-7.083H18.25v-2.5h2.5v2.347a5.334,5.334,0,0,1,2.917-.113V19H2V32.75a1.666,1.666,0,0,0,1.667,1.667ZM18.25,20.25h2.5v2.5h-2.5Zm-4.583,0h2.5v2.5h-2.5Zm0,4.583h2.5v2.5h-2.5Zm0,4.583h2.5v2.5h-2.5ZM9.083,20.25h2.5v2.5h-2.5Zm0,4.583h2.5v2.5h-2.5Zm0,4.583h2.5v2.5h-2.5ZM4.5,20.25H7v2.5H4.5Zm0,4.583H7v2.5H4.5Zm0,4.583H7v2.5H4.5Z" transform="translate(0 -9.917)"/></g></svg>