<svg xmlns="http://www.w3.org/2000/svg" width="25" height="20.631" viewBox="0 0 25 20.631"><defs><style>.a{fill:#fff;}</style></defs><g transform="translate(0 -44.743)"><path class="a" d="M248.094,54.743h12.4v4.834h-12.4Z" transform="translate(-235.98 -9.512)"/><path class="a" d="M400.547,201.7H405.5v4.834h-4.954Z" transform="translate(-380.989 -149.294)"/><path class="a" d="M248.094,201.7h4.954v4.834h-4.954Z" transform="translate(-235.98 -149.294)"/><path class="a" d="M10,54.743h9.277V69.3H10Z" transform="translate(-9.512 -9.512)"/><path class="a" d="M10,352.862h9.277v5.1H10Z" transform="translate(-9.512 -293.074)"/><path class="a" d="M414.734,395.988h-3.992a.488.488,0,0,1,0-.977h3.992a.488.488,0,0,1,0,.977Z" transform="translate(-390.222 -333.165)"/><path class="a" d="M242.574,395.988h-3.992a.488.488,0,0,1,0-.977h3.992a.488.488,0,0,1,0,.977Z" transform="translate(-226.468 -333.165)"/><path class="a" d="M365.732,396.015a.488.488,0,1,1,.479-.393A.493.493,0,0,1,365.732,396.015Z" transform="translate(-347.41 -333.193)"/><path class="a" d="M250.98,343.742h-12.4a.488.488,0,0,1,0-.977h12.4a.488.488,0,0,1,0,.977Z" transform="translate(-226.468 -283.47)"/><path class="a" d="M250.98,448.234h-12.4a.488.488,0,1,1,0-.977h12.4a.488.488,0,1,1,0,.977Z" transform="translate(-226.468 -382.86)"/><path class="a" d="M9.765,44.743H.488A.488.488,0,0,0,0,45.231V64.885a.488.488,0,0,0,.488.488H9.765a.488.488,0,0,0,.488-.488V45.231A.488.488,0,0,0,9.765,44.743ZM.977,45.72h8.3V59.3H.977ZM9.277,64.4H.977V60.276h8.3Z"/><path class="a" d="M243.536,197.511h-4.954a.488.488,0,0,1-.488-.488v-4.834a.488.488,0,0,1,.488-.488h4.954a.488.488,0,0,1,.488.488v4.834A.488.488,0,0,1,243.536,197.511Zm-4.465-.977h3.977v-3.857h-3.977Z" transform="translate(-226.468 -139.782)"/><path class="a" d="M395.989,197.511h-4.954a.488.488,0,0,1-.488-.488v-4.834a.488.488,0,0,1,.488-.488h4.954a.488.488,0,0,1,.488.488v4.834A.488.488,0,0,1,395.989,197.511Zm-4.465-.977H395.5v-3.857h-3.977Z" transform="translate(-371.477 -139.782)"/><path class="a" d="M250.98,50.553h-12.4a.488.488,0,0,1-.488-.488V45.231a.488.488,0,0,1,.488-.488h12.4a.488.488,0,0,1,.488.488v4.834A.488.488,0,0,1,250.98,50.553Zm-11.909-.977h11.421V45.72H239.071Z" transform="translate(-226.468 0)"/></g></svg>