<svg xmlns="http://www.w3.org/2000/svg" width="25" height="25.032" viewBox="0 0 25 25.032"><defs><style>.a{fill:#fff;}</style></defs><g transform="translate(-1 -1)"><g transform="translate(5.846 5.846)"><path class="a" d="M29.961,13H14.212A1.19,1.19,0,0,0,13,14.212V26.731a1.19,1.19,0,0,0,1.212,1.212h2.019v2.827a.4.4,0,0,0,.687.283l3.11-3.11H30.769a.382.382,0,0,0,.4-.4V14.212A1.19,1.19,0,0,0,29.961,13ZM17.038,22.288a1.615,1.615,0,1,1,1.615-1.615A1.62,1.62,0,0,1,17.038,22.288Zm5.048-.2A1.615,1.615,0,1,1,23.7,20.471,1.62,1.62,0,0,1,22.086,22.086Zm5.048.2a1.615,1.615,0,1,1,1.615-1.615A1.62,1.62,0,0,1,27.134,22.288Z" transform="translate(-13 -13)"/><path class="a" d="M41.042,18V30.519a1.19,1.19,0,0,1-1.212,1.212H29.412L28.2,32.942h6.986l3.11,3.11a.4.4,0,0,0,.687-.283V32.942H41a1.19,1.19,0,0,0,1.212-1.212V19.212A1.134,1.134,0,0,0,41.042,18Z" transform="translate(-22.062 -15.981)"/></g><g transform="translate(1 1)"><path class="a" d="M18.567,12.711h1.413A1.19,1.19,0,0,0,21.192,11.5V2.212A1.19,1.19,0,0,0,19.981,1H2.212A1.19,1.19,0,0,0,1,2.212v10.9a.382.382,0,0,0,.4.4H11.1a.382.382,0,0,0,.4-.4,1.374,1.374,0,0,0-.04-.4h1.05a3.017,3.017,0,0,0,1.212,2.221,5.21,5.21,0,0,0-3.836,5.048v.4a.382.382,0,0,0,.4.4h10.5a.382.382,0,0,0,.4-.4v-.4a5.21,5.21,0,0,0-3.836-5.048A3.155,3.155,0,0,0,18.567,12.711Zm-16.759,0a4.462,4.462,0,0,1,8.885,0ZM4.231,5.846A2.019,2.019,0,1,1,6.25,7.865,2,2,0,0,1,4.231,5.846ZM11.338,11.9A5.2,5.2,0,0,0,7.906,8.148a2.776,2.776,0,0,0,1.171-2.3,2.827,2.827,0,1,0-5.654,0,2.945,2.945,0,0,0,1.171,2.3,5.363,5.363,0,0,0-2.787,2.181V2.212a.382.382,0,0,1,.4-.4H19.981a.382.382,0,0,1,.4.4V11.5a.382.382,0,0,1-.4.4H18.486a3.028,3.028,0,0,0-2.948-2.423A3,3,0,0,0,12.59,11.9Zm9.046,8.077H10.692a4.429,4.429,0,0,1,4.442-4.442h.808A4.429,4.429,0,0,1,20.384,19.981Zm-4.846-5.25a2.221,2.221,0,1,1,2.221-2.221A2.241,2.241,0,0,1,15.538,14.731Z" transform="translate(-1 -1)"/><path class="a" d="M24.4,8.808h8.077a.4.4,0,0,0,0-.808H24.4a.4.4,0,1,0,0,.808Z" transform="translate(-14.712 -5.173)"/><path class="a" d="M32.885,18.4a.382.382,0,0,0-.4-.4H24.4a.4.4,0,1,0,0,.808h8.077A.382.382,0,0,0,32.885,18.4Z" transform="translate(-14.712 -11.135)"/><path class="a" d="M24.4,13.808h8.077a.4.4,0,0,0,0-.808H24.4a.4.4,0,1,0,0,.808Z" transform="translate(-14.712 -8.154)"/></g></g></svg>