<svg xmlns="http://www.w3.org/2000/svg" width="25" height="25" viewBox="0 0 25 25"><defs><style>.a{fill:#fff;}</style></defs><g transform="translate(0 0)"><path class="a" d="M33.2,11.719a2.186,2.186,0,0,0,1.521-.618l2.168,1.084a2.152,2.152,0,0,0-.027.266,2.2,2.2,0,1,0,4.395,0,2.171,2.171,0,0,0-.22-.941l2.941-2.941a2.171,2.171,0,0,0,.941.22,2.2,2.2,0,0,0,2.2-2.2A2.164,2.164,0,0,0,47,5.941l2.555-1.916A2.2,2.2,0,1,0,48.578,2.2a2.164,2.164,0,0,0,.11.651L46.132,4.764a2.188,2.188,0,0,0-3.193,2.769L40,10.474a2.159,2.159,0,0,0-2.462.4L35.368,9.788a2.152,2.152,0,0,0,.027-.266,2.2,2.2,0,1,0-2.2,2.2Zm0,0" transform="translate(-29.486)"/><path class="a" d="M24.268,166.211h-.781V150.732a.732.732,0,0,0-.732-.732h-2.93a.732.732,0,0,0-.732.732v15.479H17.627V155.127a.732.732,0,0,0-.732-.732h-2.93a.732.732,0,0,0-.732.732v11.084H11.768v-5.225a.732.732,0,0,0-.732-.732H8.105a.732.732,0,0,0-.732.732v5.225H5.908v-8.154a.732.732,0,0,0-.732-.732H2.246a.732.732,0,0,0-.732.732v8.154H.732a.732.732,0,0,0,0,1.465H24.268a.732.732,0,0,0,0-1.465Zm0,0" transform="translate(0 -142.676)"/></g></svg>