<svg xmlns="http://www.w3.org/2000/svg" width="25" height="25" viewBox="0 0 25 25"><defs><style>.a{fill:#363090;}</style></defs><path class="a" d="M4.167,8.333A4.168,4.168,0,0,0,8.2,5.208H23.958a1.042,1.042,0,0,0,0-2.083H8.2A4.167,4.167,0,1,0,4.167,8.333Zm0-6.25A2.083,2.083,0,1,1,2.083,4.167,2.083,2.083,0,0,1,4.167,2.083Z"/><path class="a" d="M20.833,341.333a4.168,4.168,0,0,0-4.035,3.125H1.042a1.042,1.042,0,0,0,0,2.083H16.8a4.167,4.167,0,1,0,4.035-5.208Zm0,6.25a2.083,2.083,0,1,1,2.083-2.083A2.083,2.083,0,0,1,20.833,347.583Z" transform="translate(0 -324.666)"/><path class="a" d="M23.958,173.792H16.535a4.168,4.168,0,0,0-8.071,0H1.042a1.042,1.042,0,1,0,0,2.083H8.465a4.168,4.168,0,0,0,8.071,0h7.423a1.042,1.042,0,0,0,0-2.083ZM12.5,176.917a2.083,2.083,0,1,1,2.083-2.083A2.083,2.083,0,0,1,12.5,176.917Z" transform="translate(0 -162.334)"/></svg>