<svg xmlns="http://www.w3.org/2000/svg" width="25" height="16.777" viewBox="0 0 25 16.777"><defs><style>.a{fill:#fff;}</style></defs><g transform="translate(0 -3.12)"><g transform="translate(0 3.12)"><path class="a" d="M23.552,3.12,9.6,3.128A1.449,1.449,0,0,0,8.149,4.579v.665a2.813,2.813,0,0,0-1.133-.217,4.387,4.387,0,0,0-1.127.149.771.771,0,0,0-.3.165L.266,10A.79.79,0,0,0,0,10.609l.046,7.67a.925.925,0,0,0,.889.76c.021,0,2,.083,3.757.083A20.562,20.562,0,0,0,7,19.034a3.726,3.726,0,0,0,2.269-.854c.264-.192.5-.382.743-.572a1.661,1.661,0,0,0,2.795,1.6,1.7,1.7,0,0,0,.586.51,1.716,1.716,0,0,0,.752.178,1.659,1.659,0,0,0,1.484-.913l1.1-2.172a1.65,1.65,0,0,0,.1-1.272,1.593,1.593,0,0,0-.2-.383l6.9,0a1.455,1.455,0,0,0,1.453-1.449L25,4.588A1.463,1.463,0,0,0,23.552,3.12ZM13.272,16.155l-1.1,2.174a.624.624,0,1,1-1.113-.563l.905-1.783s.3-.723.77-.731a.611.611,0,0,1,.266.066.617.617,0,0,1,.31.361A.6.6,0,0,1,13.272,16.155Zm-1.734-1.912-.995.912h.009c-.623.54-1.365,1.14-2.278,1.815a.349.349,0,0,0-.123.113,2.674,2.674,0,0,1-1.345.4c-.285.036-.88.03-2.112.03-1.071,0-2.4.016-3.134-.009l.012-6.57L6.466,6.645a3.02,3.02,0,0,1,.549-.054.939.939,0,0,1,.658.174v5.424a.781.781,0,0,0,.382.671c.028.016.059.013.088.026v.058l.072-.037a.75.75,0,0,0,.611-.03,14.432,14.432,0,0,1,4.525-1.706.641.641,0,0,1,.109.005.125.125,0,0,0,.013.022C13.5,11.3,13.6,12.206,11.538,14.243Zm4.26,2.094-1.1,2.174a.635.635,0,0,1-.839.275.626.626,0,0,1-.273-.838l1.1-2.174a.621.621,0,0,1,.556-.344.629.629,0,0,1,.283.07.613.613,0,0,1,.31.36A.6.6,0,0,1,15.8,16.337Zm8.232-2.629a.483.483,0,0,1-.484.484l-9.851,0a5.382,5.382,0,0,0,1.344-2.657,1.786,1.786,0,0,0-.257-1.2,1.479,1.479,0,0,0-1.43-.734,11.932,11.932,0,0,0-4.117,1.312V8.751l14.8,0Zm0-7.829L9.115,5.873v-1.3A.483.483,0,0,1,9.6,4.092l13.955-.011a.5.5,0,0,1,.484.5Z" transform="translate(0 -3.12)"/><path class="a" d="M17.4,10.842,17.4,9.847l-2.9,0,.009,1Z" transform="translate(6.028 -0.802)"/></g></g></svg>